<?xml version="1.0" encoding="UTF-8"?>
<!DOCTYPE svg PUBLIC "-//W3C//DTD SVG 1.1//EN" "http://www.w3.org/Graphics/SVG/1.1/DTD/svg11.dtd">
<!-- Creator: CorelDRAW 2017 -->
<svg xmlns="http://www.w3.org/2000/svg" xml:space="preserve" width="127.076mm" height="28.8036mm" version="1.1" style="shape-rendering:geometricPrecision; text-rendering:geometricPrecision; image-rendering:optimizeQuality; fill-rule:evenodd; clip-rule:evenodd"
viewBox="0 0 12707.62 2880.36"
 xmlns:xlink="http://www.w3.org/1999/xlink">
 <defs>
  <style type="text/css">
   <![CDATA[
    .fil0 {fill:black}
   ]]>
  </style>
 </defs>
 <g id="Layer_x0020_1">
  <metadata id="CorelCorpID_0Corel-Layer"/>
  <g id="_1392285978912">
   <path class="fil0" d="M16.25 2705.11c1.35,0 2.02,0.67 2.02,2.7 0.67,11.02 3.49,24.06 13.04,39.13 10.23,16.53 28.11,24.74 45.32,24.74 18.55,0 44.64,-11.69 44.64,-40.26 0,-31.6 -14.39,-41.94 -50.83,-55.66 -11.02,-4.16 -33.62,-13.72 -50.15,-28.9 -11.69,-11.02 -17.09,-28.22 -17.09,-49.14 0,-19.23 7.53,-35.08 24.06,-48.13 13.72,-11.69 28.9,-16.53 48.8,-16.53 22.71,0 36.43,5.51 43.29,8.21 3.37,1.35 5.51,0.67 7.2,-1.01l4.5 -4.5c1.35,-1.35 2.7,-2.02 4.84,-2.02 2.14,0 2.7,2.02 2.7,5.51 0,5.51 5.51,53.64 5.51,57.01 0,1.35 -0.67,2.02 -2.02,2.36l-5.51 1.69c-1.35,0.34 -2.7,0 -3.37,-2.02 -3.49,-9.67 -8.88,-23.39 -21.25,-36.43 -9,-9.67 -19.9,-14.39 -35.76,-14.39 -27.55,0 -38.46,22.04 -38.46,34.75 0,11.69 1.35,22.04 9.67,30.92 8.88,8.88 28.22,17.2 41.94,21.25 19.9,6.18 36.43,13.04 49.48,26.76 11.02,11.69 17.2,26.09 17.2,49.14 0,41.94 -27.55,76.24 -72.87,76.24 -28.11,0 -44.64,-6.18 -58.36,-16.53 -4.16,-2.7 -6.18,-4.16 -8.21,-4.16 -2.03,0 -3.49,2.7 -5.51,6.18 -2.02,3.49 -3.49,4.16 -6.18,4.16 -2.69,0 -4.05,-2.02 -4.05,-5.51 0.67,-4.16 5.51,-59.82 6.18,-63.87 0.34,-2.02 0.67,-2.81 2.02,-2.81l7.53 0.67 -0.32 0.45z"/>
   <path class="fil0" d="M506.86 2560.84c25.75,20.92 46.67,54.99 46.67,101.65 0,25.41 -6.86,52.18 -25.41,75.57 -22.04,27.44 -51.5,48.8 -103.11,48.8 -20.58,0 -50.15,-6.18 -77.59,-22.71 -24.4,-14.73 -50.15,-52.18 -50.15,-101.65 0,-20.58 5.85,-53.3 31.6,-85.24 30.25,-37.11 67.36,-43.97 96.93,-43.97 25.41,0 52.85,4.84 81.07,27.44l-0.01 0.11zm-131.91 6.86c-20.92,20.24 -30.92,55.66 -30.92,83.1 0,89.28 54.99,120.88 83.89,120.88 69.38,0 80.4,-76.91 80.4,-105.81 0,-74.89 -50.83,-117.51 -83.89,-117.51 -6.18,0 -26.09,-3.49 -49.48,19.23l0 0.11z"/>
   <path class="fil0" d="M929.55 2725.68c1.01,1.01 1.35,2.02 0.67,3.49 -20.58,29.57 -53.53,57.69 -102.33,57.69 -43.97,0 -68.71,-13.04 -89.96,-32.27 -25.41,-22.71 -37.11,-62.52 -37.11,-92.77 0,-33.62 11.02,-66.01 35.08,-92.09 18.55,-19.9 48.13,-36.43 89.28,-36.43 31.6,0 57.01,9.67 69.38,16.53 4.84,2.81 6.18,2.81 6.86,0l2.7 -8.88c0.67,-2.02 1.35,-2.02 5.51,-2.02 4.16,0 4.84,0.67 4.84,5.51 0,6.18 6.86,61.17 8.21,71.4 0.34,2.02 0,3.15 -1.35,3.49l-6.52 2.02c-1.69,0.67 -2.7,-0.67 -3.71,-3.49 -4.16,-12.37 -12.37,-29.57 -26.88,-44.64 -15.07,-14.39 -32.95,-25.41 -59.71,-25.41 -54.99,0 -77.59,49.48 -77.59,98.95 0,21.25 6.18,61.85 31.6,89.28 22.6,24.06 42.62,26.76 59.04,26.76 37.78,0 67.69,-18.89 82.09,-39.81 1.69,-2.36 3.04,-3.49 4.16,-2.36l5.85 5.17 -0.11 -0.12z"/>
   <path class="fil0" d="M1137.01 2670.36c0,3.49 0.67,82.42 0.67,86.25 0,11.02 5.51,12.37 13.72,12.37l14.4 0c1.35,0 2.7,0.67 2.7,2.36l0 8.55c0,2.02 -1.35,2.81 -3.37,2.81 -4.16,0 -17.88,-1.01 -50.15,-1.01 -34.41,0 -49.48,1.01 -52.85,1.01 -2.02,0 -2.7,-0.67 -2.7,-2.36l0 -9.22c0,-1.35 0.67,-2.02 2.7,-2.02l13.71 -0.01c6.86,0 14.51,-0.67 15.86,-10.01 0.67,-4.84 1.35,-79.05 1.35,-97.6l0 -24.06c0,-8.21 -0.67,-70.06 -1.01,-74.55 -1.01,-8.21 -4.5,-11.69 -14.06,-11.69l-17.88 -0.01c-2.02,0 -2.7,-0.67 -2.7,-2.36l0 -8.88c0,-1.69 0.67,-2.36 2.02,-2.36 4.16,0 22.04,1.01 55.66,1.01 33.62,0 43.97,-1.01 48.8,-1.01 2.02,0 2.81,1.35 2.81,3.15l0 7.87c0,2.02 -1.35,2.81 -2.81,2.81l-13.04 -0.01c-7.53,0 -13.04,2.7 -13.04,9.22 0,3.49 -0.67,79.05 -0.67,83.1l0 26.76 -0.12 -0.11z"/>
   <path class="fil0" d="M1381.03 2682.05c0.34,18.55 1.01,52.18 1.01,58.36 0,17.88 6.18,24.74 13.83,26.76 5.51,1.35 13.72,2.7 26.76,2.7 6.18,0 22.04,-0.67 28.9,-1.35 6.18,-0.67 19.23,-4.16 28.22,-11.69 6.18,-5.51 25.41,-28.22 31.94,-36.43 1.35,-1.69 2.36,-2.02 3.82,-1.35l5.51 3.49c1.01,0.67 1.35,1.69 0.67,3.49l-16.42 51.5c-1.01,3.04 -3.49,5.17 -7.53,5.17 -1.69,0 -9.33,-0.34 -30.59,-0.67 -21.59,0 -57.01,-0.34 -114.36,-0.34 -12.71,0 -22.04,0.34 -29.24,0.34 -6.86,0.34 -11.69,0.67 -14.73,0.67 -2.02,0 -2.7,-0.67 -2.7,-2.81l0 -8.21c0,-2.02 0.67,-2.81 3.37,-2.81l11.71 -0.01c15.74,0 17.09,-2.02 17.09,-14.73l0 -115.48c0,-28.22 -0.67,-70.73 -1.35,-75.57 -1.35,-9.22 -4.84,-12.03 -15.18,-12.03l-13.04 0c-1.35,0 -2.02,-0.67 -2.02,-2.36l0 -8.88c0,-1.69 0.34,-2.36 2.02,-2.36 7.53,0 19.9,1.35 48.13,1.01l9.56 0c15.18,0 94.12,-0.67 109.3,-0.67 5.51,0 12.03,-0.34 13.72,-0.34 1.69,0 2.36,0.67 2.7,2.02 1.35,4.5 14.39,51.16 15.74,54.65 0.67,2.02 0.34,3.15 -1.01,3.82l-6.18 2.7c-1.01,0.34 -2.02,0 -3.04,-1.69 -1.35,-2.02 -29.57,-33.62 -37.78,-38.46 -7.2,-4.16 -16.42,-8.55 -26.09,-8.88l-52.18 -1.35 -0.67 99.29c10.35,0 34.97,-0.67 39.13,-1.69 7.53,-1.35 11.69,-4.16 15.74,-12.37 2.02,-4.5 5.51,-13.04 5.51,-19.23 0,-2.02 1.35,-2.7 2.7,-2.7l9 0.67c1.35,0 2.36,0.67 2.02,2.7 -0.67,5.51 -0.67,28.22 -0.67,37.11 0,13.72 1.35,30.25 2.02,37.78 0,1.69 -0.67,2.02 -2.7,2.36l-7.53 1.35c-1.35,0.34 -2.02,-0.34 -2.7,-2.36 -1.35,-5.51 -3.82,-13.04 -5.51,-17.2 -3.04,-6.86 -9.67,-11.69 -17.2,-12.37 -12.37,-1.35 -28.9,-2.02 -39.81,-2.02l0.34 20.58 -0.23 -0.11z"/>
   <path class="fil0" d="M1736.25 2552.96l-9.56 0c-11.02,0 -35.76,0 -50.15,4.84 -11.02,4.84 -24.06,27.44 -30.59,39.13 -1.01,1.69 -2.02,3.15 -3.71,2.36l-6.86 -2.36c-1.35,-0.67 -1.69,-1.69 -1.35,-3.49l16.42 -63.2c0.67,-4.84 2.7,-6.18 4.16,-6.18 2.02,0 3.37,1.35 5.51,3.49 6.86,6.86 13.72,8.55 23.39,8.88 18.55,0.67 32.95,2.02 66.57,2.02l18.55 0.01c37.78,0 52.18,-1.35 68.03,-2.02 6.52,-0.34 19.57,-5.17 24.74,-8.88 2.81,-2.02 4.16,-3.49 6.18,-3.49 2.02,0 2.7,1.35 3.37,5.51 0.67,6.18 7.53,48.8 10.35,65.22 0.34,2.02 -0.34,2.7 -1.35,3.15l-6.86 2.36c-1.35,0.34 -2.02,-0.67 -3.04,-2.81 -4.84,-9.67 -17.54,-31.6 -27.1,-38.46 -9.56,-5.51 -40.48,-6.18 -52.85,-6.18l-9.66 -0.01 0 183.07c0,26.09 3.49,32.95 11.69,32.95l19.91 -0.01c1.35,0 2.02,1.35 2.02,3.15l0 7.2c0,2.02 -0.67,3.49 -3.37,3.49 -3.37,0 -14.51,-1.01 -51.5,-1.01 -35.08,0 -49.48,1.01 -54.31,1.01 -2.02,0 -2.7,-0.67 -2.7,-3.15l0 -7.87c0,-2.02 1.01,-2.81 2.36,-2.81l19.56 -0.01c6.86,0 11.02,-4.16 11.36,-9.22 1.01,-8.88 1.01,-114.02 1.01,-120.88l0 -85.91 -0.22 0.11z"/>
   <path class="fil0" d="M2026.93 2687.23c-2.81,7.87 -19.57,57.01 -21.37,66.34 -0.67,2.81 -0.67,5.51 -0.67,7.2 0,4.5 5.51,8.21 12.37,8.21l14.39 0c2.7,0 3.49,0.67 3.49,1.69l0 8.55c0,2.02 -0.67,3.49 -2.7,3.49 -4.84,0 -19.23,-1.01 -43.29,-1.01 -25.41,0 -32.95,1.01 -37.78,1.01 -2.02,0 -2.02,-2.02 -2.02,-4.5l0 -6.52c0,-2.02 0.79,-2.81 2.02,-2.81l10.34 -0.02c9.67,0 15.74,-4.84 22.04,-15.41 3.37,-6.18 28.11,-68.03 38.46,-96.82l33.62 -90.07c0.67,-3.49 2.7,-9.56 0.67,-11.69 -1.01,-1.01 -2.02,-3.04 -2.02,-4.16 0,-1.35 0.67,-2.7 3.37,-3.49 11.02,-2.81 29.91,-13.04 34.07,-17.2 2.02,-2.02 3.49,-3.49 5.17,-3.49 2.02,0 3.49,4.16 4.16,6.18 6.18,21.25 32.95,98.28 39.13,120.21 8.32,26.76 30.25,90.75 35.08,99.97 6.18,11.69 15.07,15.74 21.93,15.74l11.03 0.01c2.02,0 2.7,0.67 2.7,2.36l0 7.2c0,2.02 -0.67,4.16 -3.49,4.16 -6.18,0 -13.04,-1.01 -50.83,-1.01 -28.9,0 -40.48,1.01 -48.13,1.01 -2.7,0 -3.37,-2.02 -3.37,-4.16l0 -6.86c0,-2.02 0.67,-2.81 2.7,-2.81l8.88 0c9.67,0 12.37,-3.49 10.35,-12.71 -2.7,-12.37 -16.42,-56.34 -20.58,-69.04l-79.72 0 0 0.45zm76.24 -13.72c-3.49,-10.01 -26.76,-88.27 -28.9,-95.13 -1.35,-4.16 -2.02,-6.18 -3.49,-6.18 -2.02,0 -3.49,1.35 -4.5,4.5 -1.35,4.5 -32.27,88.95 -34.75,96.93l71.52 -0.01 0.12 -0.11z"/>
   <path class="fil0" d="M2388.67 2552.96l-9.56 0c-11.02,0 -35.76,0 -50.15,4.84 -11.02,4.84 -24.06,27.44 -30.59,39.13 -1.01,1.69 -2.02,3.15 -3.71,2.36l-6.86 -2.36c-1.35,-0.67 -1.69,-1.69 -1.35,-3.49l16.42 -63.2c0.67,-4.84 2.7,-6.18 4.16,-6.18 2.02,0 3.37,1.35 5.51,3.49 6.86,6.86 13.72,8.55 23.39,8.88 18.55,0.67 32.95,2.02 66.57,2.02l18.56 0.01c37.78,0 52.18,-1.35 68.03,-2.02 6.52,-0.34 19.57,-5.17 24.74,-8.88 2.81,-2.02 4.16,-3.49 6.18,-3.49 2.02,0 2.7,1.35 3.37,5.51 0.67,6.18 7.53,48.8 10.35,65.22 0.34,2.02 -0.34,2.7 -1.35,3.15l-6.86 2.36c-1.35,0.34 -2.02,-0.67 -3.04,-2.81 -4.84,-9.67 -17.54,-31.6 -27.1,-38.46 -9.56,-5.51 -40.48,-6.18 -52.85,-6.18l-9.67 -0.01 0 183.07c0,26.09 3.49,32.95 11.69,32.95l19.91 -0.01c1.35,0 2.02,1.35 2.02,3.15l0 7.2c0,2.02 -0.67,3.49 -3.37,3.49 -3.37,0 -14.51,-1.01 -51.5,-1.01 -35.08,0 -49.48,1.01 -54.31,1.01 -2.02,0 -2.7,-0.67 -2.7,-3.15l0 -7.87c0,-2.02 1.01,-2.81 2.36,-2.81l19.57 -0.01c6.86,0 11.02,-4.16 11.36,-9.22 1.01,-8.88 1.01,-114.02 1.01,-120.88l0 -85.91 -0.23 0.11z"/>
   <path class="fil0" d="M2738.16 2682.05c0.34,18.55 1.01,52.18 1.01,58.36 0,17.88 6.18,24.74 13.72,26.76 5.51,1.35 13.72,2.7 26.76,2.7 6.18,0 22.04,-0.67 28.9,-1.35 6.18,-0.67 19.23,-4.16 28.11,-11.69 6.18,-5.51 25.41,-28.22 31.94,-36.43 1.35,-1.69 2.36,-2.02 3.71,-1.35l5.51 3.49c1.01,0.67 1.35,1.69 0.67,3.49l-16.53 51.5c-1.01,3.04 -3.37,5.17 -7.53,5.17 -1.69,0 -9.22,-0.34 -30.59,-0.67 -21.7,0 -57.01,-0.34 -114.36,-0.34 -12.71,0 -22.04,0.34 -29.24,0.34 -6.86,0.34 -11.69,0.67 -14.73,0.67 -2.02,0 -2.81,-0.67 -2.81,-2.81l0 -8.21c0,-2.02 0.67,-2.81 3.49,-2.81l11.7 -0.01c15.74,0 17.2,-2.02 17.2,-14.73l0 -115.48c0,-28.22 -0.67,-70.73 -1.35,-75.57 -1.35,-9.22 -4.84,-12.03 -15.07,-12.03l-13.04 0c-1.35,0 -2.02,-0.67 -2.02,-2.36l0 -8.88c0,-1.69 0.34,-2.36 2.02,-2.36 7.53,0 19.9,1.35 48.13,1.01l9.67 0c15.07,0 94.12,-0.67 109.19,-0.67 5.51,0 12.03,-0.34 13.72,-0.34 1.69,0 2.36,0.67 2.7,2.02 1.35,4.5 14.51,51.16 15.86,54.65 0.67,2.02 0.34,3.15 -1.01,3.82l-6.18 2.7c-1.12,0.34 -2.02,0 -3.15,-1.69 -1.35,-2.02 -29.57,-33.62 -37.78,-38.46 -7.2,-4.16 -16.53,-8.55 -26.09,-8.88l-52.29 -1.35 -0.67 99.29c10.35,0 35.08,-0.67 39.13,-1.69 7.53,-1.35 11.69,-4.16 15.74,-12.37 2.02,-4.5 5.51,-13.04 5.51,-19.23 0,-2.02 1.35,-2.7 2.7,-2.7l8.88 0.67c1.35,0 2.36,0.67 2.02,2.7 -0.67,5.51 -0.67,28.22 -0.67,37.11 0,13.72 1.35,30.25 2.02,37.78 0,1.69 -0.67,2.02 -2.7,2.36l-7.53 1.35c-1.35,0.34 -2.02,-0.34 -2.7,-2.36 -1.35,-5.51 -3.82,-13.04 -5.51,-17.2 -3.04,-6.86 -9.56,-11.69 -17.09,-12.37 -12.37,-1.35 -28.9,-2.02 -39.92,-2.02l0.34 20.58 0.21 -0.11z"/>
   <path class="fil0" d="M3413.97 2725.68c1.01,1.01 1.35,2.02 0.67,3.49 -20.58,29.57 -53.53,57.69 -102.33,57.69 -43.97,0 -68.71,-13.04 -89.96,-32.27 -25.41,-22.71 -37.11,-62.52 -37.11,-92.77 0,-33.62 11.02,-66.01 35.08,-92.09 18.55,-19.9 48.13,-36.43 89.28,-36.43 31.6,0 57.01,9.67 69.38,16.53 4.84,2.81 6.18,2.81 6.86,0l2.7 -8.88c0.67,-2.02 1.35,-2.02 5.51,-2.02 4.16,0 4.84,0.67 4.84,5.51 0,6.18 6.86,61.17 8.21,71.4 0.34,2.02 0,3.15 -1.35,3.49l-6.52 2.02c-1.69,0.67 -2.7,-0.67 -3.71,-3.49 -4.16,-12.37 -12.37,-29.57 -26.88,-44.64 -15.07,-14.39 -32.95,-25.41 -59.71,-25.41 -54.99,0 -77.59,49.48 -77.59,98.95 0,21.25 6.18,61.85 31.6,89.28 22.6,24.06 42.62,26.76 59.04,26.76 37.78,0 67.69,-18.89 82.09,-39.81 1.69,-2.36 3.04,-3.49 4.16,-2.36l5.85 5.17 -0.11 -0.12z"/>
   <path class="fil0" d="M3621.44 2670.36c0,3.49 0.67,82.42 0.67,86.25 0,11.02 5.51,12.37 13.72,12.37l14.39 0c1.35,0 2.7,0.67 2.7,2.36l0 8.55c0,2.02 -1.35,2.81 -3.49,2.81 -4.16,0 -17.88,-1.01 -50.15,-1.01 -34.41,0 -49.48,1.01 -52.96,1.01 -2.02,0 -2.7,-0.67 -2.7,-2.36l0 -9.22c0,-1.35 0.67,-2.02 2.7,-2.02l13.83 -0.01c6.86,0 14.39,-0.67 15.74,-10.01 0.67,-4.84 1.35,-79.05 1.35,-97.6l0 -24.06c0,-8.21 -0.67,-70.06 -1.01,-74.55 -1.01,-8.21 -4.5,-11.69 -14.06,-11.69l-17.87 -0.01c-2.02,0 -2.7,-0.67 -2.7,-2.36l0 -8.88c0,-1.69 0.67,-2.36 2.02,-2.36 4.16,0 22.04,1.01 55.66,1.01 33.62,0 43.97,-1.01 48.8,-1.01 2.02,0 2.7,1.35 2.7,3.15l0 7.87c0,2.02 -1.35,2.81 -2.7,2.81l-13.04 -0.01c-7.53,0 -13.04,2.7 -13.04,9.22 0,3.49 -0.67,79.05 -0.67,83.1l0 26.76 0.11 -0.11z"/>
   <path class="fil0" d="M3941.69 2540.26c0,-2.02 0.67,-2.81 2.81,-2.81 2.7,0 18.55,1.01 40.48,1.01 28.9,0 37.78,-1.01 40.59,-1.01 2.02,0 2.7,0.67 2.7,2.36l0 8.55c0,1.69 -0.67,2.81 -2.7,2.81l-8.2 0c-8.32,0 -17.2,3.49 -25.08,15.74 -11.36,18.22 -31.94,71.74 -41.61,94.46 -6.86,15.07 -48.13,115.48 -51.5,122.68 -1.35,2.7 -4.16,4.5 -6.86,4.5 -4.16,0 -5.85,-3.82 -7.53,-7.87 -11.69,-29.24 -40.48,-107.84 -52.29,-139.77 -8.88,-24.74 -24.06,-68.71 -27.77,-78.6 -3.15,-7.53 -7.2,-11.02 -14.73,-11.02l-8.21 -0.01c-1.35,0 -2.02,-1.01 -2.02,-3.15l0 -7.87c0,-2.02 0.67,-2.81 2.02,-2.81 3.37,0 15.07,1.01 50.83,1.01 32.27,0 48.13,-1.01 50.83,-1.01 2.7,0 3.37,1.01 3.37,2.81l0 7.53c0,2.36 -0.67,3.49 -2.7,3.49l-16.42 0c-8.88,0 -14.51,3.49 -14.51,8.55 0,2.7 0,6.86 1.12,11.69 2.36,12.37 15.41,52.85 22.26,72.87 4.84,13.04 23.39,67.36 28.9,85.91l0.69 -0.01 0 -0.67c8.21,-19.23 30.25,-76.24 33.62,-86.58 5.51,-16.19 26.76,-68.03 26.76,-82.09 0,-4.16 -3.37,-9.56 -13.04,-9.56l-9.22 0c-1.35,0 -2.36,-1.35 -2.36,-3.15l0 -7.87 -0.23 -0.11z"/>
   <path class="fil0" d="M4217.97 2670.36c0,3.49 0.67,82.42 0.67,86.25 0,11.02 5.51,12.37 13.72,12.37l14.51 0c1.35,0 2.7,0.67 2.7,2.36l0 8.55c0,2.02 -1.35,2.81 -3.49,2.81 -4.16,0 -17.88,-1.01 -50.15,-1.01 -34.3,0 -49.48,1.01 -52.85,1.01 -2.02,0 -2.7,-0.67 -2.7,-2.36l0 -9.22c0,-1.35 0.67,-2.02 2.7,-2.02l13.72 -0.01c6.86,0 14.39,-0.67 15.74,-10.01 0.67,-4.84 1.35,-79.05 1.35,-97.6l0 -24.06c0,-8.21 -0.67,-70.06 -1.01,-74.55 -1.01,-8.21 -4.5,-11.69 -14.06,-11.69l-17.87 -0.01c-2.02,0 -2.7,-0.67 -2.7,-2.36l0 -8.88c0,-1.69 0.67,-2.36 2.02,-2.36 4.16,0 22.04,1.01 55.66,1.01 33.62,0 43.97,-1.01 48.8,-1.01 2.02,0 2.7,1.35 2.7,3.15l0 7.87c0,2.02 -1.35,2.81 -2.7,2.81l-13.04 -0.01c-7.53,0 -13.04,2.7 -13.04,9.22 0,3.49 -0.67,79.05 -0.67,83.1l0 26.76 -0.01 -0.11z"/>
   <path class="fil0" d="M4594.79 2710.95c0.67,0.67 0.67,1.35 0.67,3.49 -1.35,2.02 -15.18,59.04 -17.2,68.37 -8.88,-0.34 -107.84,-1.01 -142.92,-1.01 -30.92,0 -43.29,1.01 -47.34,1.01 -2.7,0 -2.7,-0.67 -2.7,-3.15l0 -7.87c0,-2.02 0,-2.81 2.02,-2.81l13.72 0c12.37,0 14.39,-4.84 14.39,-9.22 0,-6.18 1.35,-92.09 1.35,-112.67l0 -19.23c0,-22.04 -0.67,-58.36 -1.35,-64.21 -0.67,-8.88 -2.02,-12.37 -11.02,-12.37l-14.39 0c-2.02,0 -2.81,-2.02 -2.81,-3.15l0 -7.87c0,-2.02 0.67,-2.81 2.81,-2.81 3.37,0 15.74,1.01 47.34,1.01 37.11,0 51.5,-1.01 54.31,-1.01 2.81,0 3.37,1.35 3.37,3.15l0 7.87c0,1.35 -0.67,2.81 -3.37,2.81l-18.55 0c-10.35,0 -11.69,3.49 -11.69,12.71 0,4.84 -1.35,56.34 -1.35,80.4l0 29.57c0,6.18 0,80.4 1.35,95.13l19.22 0c19.23,0 43.97,0 57.69,-1.69 19.23,-2.81 41.27,-43.97 45.99,-57.01 1.35,-1.35 2.02,-2.02 4.16,-1.35l6.18 2.02 0.12 -0.11z"/>
   <path class="fil0" d="M4778.98 2687.23c-2.7,7.87 -19.57,57.01 -21.25,66.34 -0.67,2.81 -0.67,5.51 -0.67,7.2 0,4.5 5.51,8.21 12.37,8.21l14.49 0c2.7,0 3.37,0.67 3.37,1.69l0 8.55c0,2.02 -0.67,3.49 -2.7,3.49 -4.84,0 -19.23,-1.01 -43.29,-1.01 -25.41,0 -32.95,1.01 -37.78,1.01 -2.02,0 -2.02,-2.02 -2.02,-4.5l0 -6.52c0,-2.02 0.67,-2.81 2.02,-2.81l10.35 -0.02c9.56,0 15.74,-4.84 21.93,-15.41 3.49,-6.18 28.22,-68.03 38.46,-96.82l33.62 -90.07c0.67,-3.49 2.7,-9.56 0.67,-11.69 -1.01,-1.01 -2.02,-3.04 -2.02,-4.16 0,-1.35 0.67,-2.7 3.49,-3.49 11.02,-2.81 29.91,-13.04 33.96,-17.2 2.02,-2.02 3.37,-3.49 5.17,-3.49 2.02,0 3.37,4.16 4.16,6.18 6.18,21.25 32.95,98.28 39.13,120.21 8.21,26.76 30.25,90.75 34.97,99.97 6.18,11.69 15.18,15.74 22.04,15.74l11.02 0.01c2.02,0 2.7,0.67 2.7,2.36l0 7.2c0,2.02 -0.67,4.16 -3.37,4.16 -6.18,0 -13.04,-1.01 -50.83,-1.01 -28.9,0 -40.48,1.01 -48.13,1.01 -2.7,0 -3.49,-2.02 -3.49,-4.16l0 -6.86c0,-2.02 0.67,-2.81 2.7,-2.81l9 0c9.56,0 12.37,-3.49 10.35,-12.71 -2.81,-12.37 -16.53,-56.34 -20.58,-69.04l-79.73 0 -0.11 0.45zm76.24 -13.72c-3.37,-10.01 -26.76,-88.27 -28.9,-95.13 -1.35,-4.16 -2.02,-6.18 -3.37,-6.18 -2.02,0 -3.49,1.35 -4.5,4.5 -1.35,4.5 -32.27,88.95 -34.63,96.93l71.4 -0.01 0 -0.11zm-64.55 -204.09c0.67,-0.34 1.69,0.34 2.7,1.69 8.88,15.07 24.06,19.57 41.27,19.57 19.9,0 37.11,-9.22 41.94,-19.57 0.67,-1.35 1.69,-2.02 2.81,-1.35l4.05 2.02c1.12,0.67 1.12,1.35 0.67,2.7 -4.16,17.2 -23.73,43.29 -50.83,43.29 -25.08,0 -45.43,-19.9 -48.13,-42.62 -0.34,-2.02 0,-3.82 1.12,-4.16l4.5 -1.69 -0.1 0.12z"/>
   <path class="fil0" d="M5288.93 2621.67c0,-22.71 0,-59.04 -0.34,-62.86 -0.67,-5.85 -4.39,-7.53 -12.03,-7.53l-17.88 0c-1.35,0 -2.02,-0.67 -2.02,-2.36l0 -8.55c0,-2.02 0.67,-2.81 2.02,-2.81 4.16,0 16.42,1.01 50.83,1.01 6.18,0 26.09,-1.01 37.78,-1.01 41.27,0 61.17,3.82 81.07,17.54 15.74,11.69 26.09,30.92 26.09,52.18 0,42.62 -32.95,69.38 -91.42,69.38 -11.69,0 -21.93,0 -30.92,-1.35l0 15.18c0,16.53 0,63.2 0.34,67.69 1.12,7.53 4.5,11.02 10.68,11.02l19.23 0c2.7,0 2.7,1.35 2.7,2.36l0 7.87c0,2.02 0,3.49 -2.7,3.49 -4.84,0 -15.74,-1.01 -52.85,-1.01 -30.25,0 -43.97,1.01 -47.45,1.01 -2.7,0 -2.7,-1.35 -2.7,-2.36l0 -8.55c0,-2.02 0,-2.81 2.02,-2.81l11.02 0c11.69,0 14.51,-1.35 15.41,-10.68 0.34,-3.49 1.01,-57.01 1.01,-96.93l0 -39.81 0.11 -0.11zm43.29 41.27c6.18,2.02 15.74,2.7 24.74,2.7 15.18,0 32.95,-11.69 41.27,-23.39 6.86,-10.35 8.21,-23.39 8.21,-35.76 0,-46.67 -37.78,-57.35 -54.31,-57.35 -6.18,0 -14.51,-0.34 -19.9,2.36l0 111.32 -0.01 0.12z"/>
   <path class="fil0" d="M5654.05 2691.73c0,20.58 0.67,59.04 1.35,64.21 1.01,6.86 3.37,13.04 8.88,13.04l17.2 0c2.02,0 2.7,1.01 2.7,2.36l0 8.21c0,2.36 -1.01,3.15 -3.71,3.15 -4.5,0 -11.36,-1.01 -47.12,-1.01 -33.62,0 -41.94,1.01 -45.32,1.01 -2.02,0 -2.7,-1.01 -2.7,-3.15l0 -7.87c0,-1.69 0.67,-2.81 2.02,-2.81l11.71 -0.01c7.53,0 13.04,-2.02 13.04,-11.36 0.67,-34.3 0.67,-66.68 0.67,-98.95l0 -90.3c0,-11.69 -4.84,-17.2 -11.02,-17.2l-13.37 0c-1.69,0 -2.36,-0.67 -2.36,-2.02l0 -9.22c0,-1.69 0.67,-2.36 2.36,-2.36 2.36,0 13.38,1.01 47,1.01 19.23,0 50.83,-1.01 61.17,-1.01 27.44,0 48.8,9.33 62.52,21.7 12.37,11.02 18.55,25.41 18.55,38.46 0,43.29 -26.09,61.17 -63.87,67.36l0 1.35c9.56,3.49 15.86,9.56 20.58,15.74 4.16,5.51 25.41,37.78 28.22,41.94 2.02,3.49 24.06,34.3 29.24,39.13 6.52,5.85 16.08,6.52 24.4,6.52 2.02,0 2.7,1.01 2.7,2.36l0 7.2c0,2.36 -0.67,3.49 -2.7,3.49 -2.7,0 -11.69,-1.01 -33.62,-1.01 -9.56,0 -22.71,0.67 -30.25,1.01 -4.16,-3.15 -10.68,-12.37 -15.18,-19.57 -6.18,-9.67 -19.57,-34.3 -22.6,-39.81 -3.49,-6.18 -13.04,-22.04 -18.55,-29.57 -8.66,-12.03 -16.53,-21.25 -30.92,-21.25 -1.35,0 -7.2,0.34 -11.02,0.67l0 18.55 0 0.01zm0.67 -30.93c4.84,0.67 8.88,1.35 13.04,1.35 53.53,0 64.55,-43.29 64.55,-59.04 0,-15.75 -6.52,-30.59 -15.18,-38.46 -12.37,-11.02 -28.22,-14.73 -45.43,-14.73 -5.51,0 -9.56,0.34 -12.37,2.02 -2.7,1.69 -4.16,5.85 -4.16,10.01l-0.67 98.95 0.22 -0.1z"/>
   <path class="fil0" d="M6143.98 2560.84c25.75,20.92 46.67,54.99 46.67,101.65 0,25.41 -6.86,52.18 -25.41,75.57 -21.93,27.44 -51.5,48.8 -103.11,48.8 -20.58,0 -50.15,-6.18 -77.59,-22.71 -24.4,-14.73 -50.15,-52.18 -50.15,-101.65 0,-20.58 5.85,-53.3 31.6,-85.24 30.25,-37.11 67.36,-43.97 96.93,-43.97 25.41,0 52.85,4.84 81.07,27.44l-0.01 0.11zm-131.9 6.86c-20.92,20.24 -30.92,55.66 -30.92,83.1 0,89.28 54.99,120.88 83.77,120.88 69.38,0 80.4,-76.91 80.4,-105.81 0,-74.89 -50.83,-117.51 -83.77,-117.51 -6.18,0 -26.09,-3.49 -49.48,19.23l0 0.11z"/>
   <path class="fil0" d="M6405.2 2660.46c9.67,0 31.26,-0.34 36.77,-1.69 6.86,-0.67 12.37,-4.84 18.22,-13.38 2.7,-4.5 4.84,-11.36 6.18,-17.54 0.34,-1.35 1.35,-2.7 2.7,-2.7l6.86 0.67c1.35,0 2.02,0.67 2.02,2.02 -0.67,6.18 -0.67,34.3 -0.67,39.13 0,12.37 1.35,28.9 2.02,35.76 0.34,2.36 -0.67,3.15 -2.02,3.49l-7.53 1.35c-1.35,0 -2.36,-0.67 -2.7,-2.7 -0.34,-2.36 -3.49,-13.04 -5.17,-16.19 -4.16,-7.53 -10.35,-12.71 -17.2,-14.06 -13.04,-2.02 -29.12,-2.02 -39.47,-2.02l0 85.57c0,9.67 2.7,11.02 11.02,11.02l18.54 0.01c2.02,0 2.7,0.67 2.7,2.36l0 8.55c0,2.02 -0.67,2.81 -2.7,2.81 -3.49,0 -17.2,-1.01 -50.83,-1.01 -30.92,0 -43.97,1.01 -48.8,1.01 -1.35,0 -2.02,-0.67 -2.02,-2.36l0 -9.22c0,-1.35 0.67,-2.02 2.02,-2.02l13.72 -0.01c8.32,0 11.02,-1.35 11.36,-7.2 0.34,-6.86 1.01,-50.15 1.01,-109.19l0 -24.06c0,-15.07 -0.67,-63.87 -0.67,-67.69 0,-6.18 -4.84,-9.56 -13.72,-9.56l-17.21 0.01c-1.35,0 -2.7,-0.67 -2.7,-1.69l0 -10.01c0,-1.35 1.35,-2.02 2.7,-2.02 3.37,0 16.42,1.01 55.66,1.01 4.84,0 95.47,-0.67 117.51,-0.67 6.18,0 11.69,-1.35 13.04,-1.35 1.35,0.67 2.02,2.02 2.02,4.84 1.35,5.51 12.37,52.85 13.72,57.01 0.34,1.35 0,2.36 -1.01,2.81l-6.52 2.7c-1.35,0.67 -2.02,0 -4.16,-2.7 -3.37,-6.18 -12.37,-17.88 -24.74,-31.6 -5.51,-7.53 -14.51,-13.72 -23.39,-15.86 -9,-1.69 -53.64,-3.15 -66.68,-3.15l0 109.97 0.12 -0.45z"/>
   <path class="fil0" d="M6729.84 2682.05c0.34,18.55 1.01,52.18 1.01,58.36 0,17.88 6.18,24.74 13.72,26.76 5.51,1.35 13.72,2.7 26.76,2.7 6.18,0 22.04,-0.67 28.9,-1.35 6.18,-0.67 19.23,-4.16 28.11,-11.69 6.18,-5.51 25.41,-28.22 31.94,-36.43 1.35,-1.69 2.36,-2.02 3.71,-1.35l5.51 3.49c1.01,0.67 1.35,1.69 0.67,3.49l-16.53 51.5c-1.01,3.04 -3.37,5.17 -7.53,5.17 -1.69,0 -9.22,-0.34 -30.59,-0.67 -21.7,0 -57.01,-0.34 -114.36,-0.34 -12.71,0 -22.04,0.34 -29.24,0.34 -6.86,0.34 -11.69,0.67 -14.73,0.67 -2.02,0 -2.81,-0.67 -2.81,-2.81l0 -8.21c0,-2.02 0.67,-2.81 3.49,-2.81l11.69 -0.01c15.74,0 17.2,-2.02 17.2,-14.73l0 -115.48c0,-28.22 -0.67,-70.73 -1.35,-75.57 -1.35,-9.22 -4.84,-12.03 -15.07,-12.03l-13.03 0c-1.35,0 -2.02,-0.67 -2.02,-2.36l0 -8.88c0,-1.69 0.34,-2.36 2.02,-2.36 7.53,0 19.9,1.35 48.13,1.01l9.67 0c15.07,0 94.12,-0.67 109.19,-0.67 5.51,0 12.03,-0.34 13.72,-0.34 1.69,0 2.36,0.67 2.7,2.02 1.35,4.5 14.51,51.16 15.86,54.65 0.67,2.02 0.34,3.15 -1.01,3.82l-6.18 2.7c-1.12,0.34 -2.02,0 -3.15,-1.69 -1.35,-2.02 -29.57,-33.62 -37.78,-38.46 -7.2,-4.16 -16.53,-8.55 -26.09,-8.88l-52.29 -1.35 -0.67 99.29c10.35,0 35.08,-0.67 39.13,-1.69 7.53,-1.35 11.69,-4.16 15.74,-12.37 2.02,-4.5 5.51,-13.04 5.51,-19.23 0,-2.02 1.35,-2.7 2.7,-2.7l8.88 0.67c1.35,0 2.36,0.67 2.02,2.7 -0.67,5.51 -0.67,28.22 -0.67,37.11 0,13.72 1.35,30.25 2.02,37.78 0,1.69 -0.67,2.02 -2.7,2.36l-7.53 1.35c-1.35,0.34 -2.02,-0.34 -2.7,-2.36 -1.35,-5.51 -3.82,-13.04 -5.51,-17.2 -3.04,-6.86 -9.56,-11.69 -17.09,-12.37 -12.37,-1.35 -28.9,-2.02 -39.92,-2.02l0.34 20.58 0.21 -0.11z"/>
   <path class="fil0" d="M7016.47 2705.11c1.35,0 2.02,0.67 2.02,2.7 0.67,11.02 3.37,24.06 13.04,39.13 10.35,16.53 28.22,24.74 45.32,24.74 18.55,0 44.64,-11.69 44.64,-40.26 0,-31.6 -14.51,-41.94 -50.83,-55.66 -11.02,-4.16 -33.62,-13.72 -50.15,-28.9 -11.69,-11.02 -17.2,-28.22 -17.2,-49.14 0,-19.23 7.53,-35.08 24.06,-48.13 13.72,-11.69 28.9,-16.53 48.8,-16.53 22.71,0 36.43,5.51 43.29,8.21 3.37,1.35 5.51,0.67 7.2,-1.01l4.5 -4.5c1.35,-1.35 2.7,-2.02 4.84,-2.02 2.14,0 2.7,2.02 2.7,5.51 0,5.51 5.51,53.64 5.51,57.01 0,1.35 -0.67,2.02 -2.02,2.36l-5.51 1.69c-1.35,0.34 -2.7,0 -3.49,-2.02 -3.37,-9.67 -8.88,-23.39 -21.25,-36.43 -8.88,-9.67 -19.9,-14.39 -35.76,-14.39 -27.44,0 -38.46,22.04 -38.46,34.75 0,11.69 1.35,22.04 9.67,30.92 8.88,8.88 28.22,17.2 41.94,21.25 19.9,6.18 36.43,13.04 49.48,26.76 11.02,11.69 17.2,26.09 17.2,49.14 0,41.94 -27.55,76.24 -72.87,76.24 -28.22,0 -44.64,-6.18 -58.47,-16.53 -4.05,-2.7 -6.18,-4.16 -8.21,-4.16 -2.03,0 -3.37,2.7 -5.51,6.18 -2.02,3.49 -3.49,4.16 -6.18,4.16 -2.69,0 -4.16,-2.02 -4.16,-5.51 0.67,-4.16 5.51,-59.82 6.18,-63.87 0.34,-2.02 0.67,-2.81 2.02,-2.81l7.53 0.67 0.13 0.45z"/>
   <path class="fil0" d="M7368.2 2670.36c0,3.49 0.67,82.42 0.67,86.25 0,11.02 5.51,12.37 13.72,12.37l14.4 0c1.35,0 2.7,0.67 2.7,2.36l0 8.55c0,2.02 -1.35,2.81 -3.37,2.81 -4.16,0 -17.88,-1.01 -50.15,-1.01 -34.41,0 -49.48,1.01 -52.85,1.01 -2.02,0 -2.7,-0.67 -2.7,-2.36l0 -9.22c0,-1.35 0.67,-2.02 2.7,-2.02l13.71 -0.01c6.86,0 14.51,-0.67 15.86,-10.01 0.67,-4.84 1.35,-79.05 1.35,-97.6l0 -24.06c0,-8.21 -0.67,-70.06 -1.01,-74.55 -1.01,-8.21 -4.5,-11.69 -14.06,-11.69l-17.88 -0.01c-2.02,0 -2.7,-0.67 -2.7,-2.36l0 -8.88c0,-1.69 0.67,-2.36 2.02,-2.36 4.16,0 22.04,1.01 55.66,1.01 33.62,0 43.97,-1.01 48.8,-1.01 2.02,0 2.81,1.35 2.81,3.15l0 7.87c0,2.02 -1.35,2.81 -2.81,2.81l-13.04 -0.01c-7.53,0 -13.04,2.7 -13.04,9.22 0,3.49 -0.67,79.05 -0.67,83.1l0 26.76 -0.12 -0.11z"/>
   <path class="fil0" d="M7749.96 2560.84c25.75,20.92 46.67,54.99 46.67,101.65 0,25.41 -6.86,52.18 -25.41,75.57 -21.93,27.44 -51.5,48.8 -103,48.8 -20.58,0 -50.15,-6.18 -77.59,-22.71 -24.4,-14.73 -50.15,-52.18 -50.15,-101.65 0,-20.58 5.85,-53.3 31.6,-85.24 30.25,-37.11 67.36,-43.97 96.93,-43.97 25.41,0 52.85,4.84 81.07,27.44l-0.12 0.11zm-131.9 6.86c-20.92,20.24 -30.92,55.66 -30.92,83.1 0,89.28 54.99,120.88 83.89,120.88 69.38,0 80.4,-76.91 80.4,-105.81 0,-74.89 -50.83,-117.51 -83.89,-117.51 -6.18,0 -26.09,-3.49 -49.48,19.23l0 0.11z"/>
   <path class="fil0" d="M7980.82 2626.39c0,58.36 2.7,106.49 3.49,117.17 0.67,17.2 4.84,25.41 17.09,25.41l8.99 0.01c2.7,0 2.7,1.35 2.7,3.15l0 7.87c0,2.02 0,2.81 -2.7,2.81 -3.49,0 -24.06,-1.01 -37.11,-1.01 -8.88,0 -32.27,1.01 -35.65,1.01 -1.35,0 -2.02,-0.67 -2.02,-3.15l0 -8.55c0,-0.67 0.67,-2.02 2.02,-2.02l11.7 0c9,0 13.72,-7.53 15.41,-28.56 0.34,-6.18 2.36,-54.31 2.36,-109.19l0 -43.63c0,-20.58 -11.69,-36.43 -26.76,-36.43l-11.02 0c-1.35,-0.34 -2.02,-1.01 -2.02,-2.36l0 -9.33c0,-1.35 0.67,-2.02 2.02,-2.02 1.69,0 4.5,0.34 10.68,0.67 6.18,0.34 15.41,0.34 30.47,0.34 5.85,0 11.02,-0.34 15.18,-0.67 4.5,0 7.53,-0.34 9.67,-0.34 4.05,0 6.18,1.01 8.21,3.15 3.37,3.49 70.73,87.93 77.59,97.6 4.84,5.51 58.47,72.19 63.87,79.05l1.35 -0.01 0 -35.76c0,-30.25 0,-47.45 -0.67,-64.55 -0.67,-13.04 -2.02,-46.67 -3.71,-52.51 -2.36,-8.21 -10.01,-13.04 -18.22,-13.04l-11.02 0c-2.02,0 -2.02,-1.35 -2.02,-3.15l0 -7.87c0,-2.02 0,-2.81 2.7,-2.81 4.05,0 15.07,1.01 38.46,1.01 20.58,0 28.9,-1.01 32.95,-1.01 2.7,0 3.49,1.35 3.49,2.36l0 7.87c0,2.02 -0.79,3.49 -2.02,3.49l-9.69 0c-6.86,0 -10.35,5.51 -11.36,18.22 -1.69,23.39 -5.17,81.07 -5.17,116.05l0 90.75c0,4.84 0,9.56 -4.16,9.56 -4.84,0 -8.88,-2.7 -11.69,-5.51 -2.81,-3.49 -21.37,-24.74 -42.62,-50.15 -24.06,-29.57 -50.83,-61.85 -54.99,-67.36 -4.84,-4.84 -59.71,-73.54 -63.87,-78.38l-2.02 -0.01 0 41.94 0.11 -0.11z"/>
   <path class="fil0" d="M8373.15 2687.23c-2.7,7.87 -19.57,57.01 -21.25,66.34 -0.67,2.81 -0.67,5.51 -0.67,7.2 0,4.5 5.51,8.21 12.37,8.21l14.5 0c2.7,0 3.37,0.67 3.37,1.69l0 8.55c0,2.02 -0.67,3.49 -2.7,3.49 -4.84,0 -19.23,-1.01 -43.18,-1.01 -25.41,0 -32.95,1.01 -37.78,1.01 -2.02,0 -2.02,-2.02 -2.02,-4.5l0 -6.52c0,-2.02 0.67,-2.81 2.02,-2.81l10.34 -0.02c9.67,0 15.74,-4.84 21.93,-15.41 3.49,-6.18 28.22,-68.03 38.46,-96.82l33.62 -90.07c0.79,-3.49 2.7,-9.56 0.79,-11.69 -1.12,-1.01 -2.02,-3.04 -2.02,-4.16 0,-1.35 0.67,-2.7 3.37,-3.49 11.02,-2.81 29.91,-13.04 33.96,-17.2 2.02,-2.02 3.49,-3.49 5.17,-3.49 2.02,0 3.49,4.16 4.16,6.18 6.18,21.25 32.95,98.28 39.13,120.21 8.21,26.76 30.25,90.75 35.08,99.97 6.18,11.69 15.07,15.74 21.93,15.74l11.02 0.01c2.02,0 2.7,0.67 2.7,2.36l0 7.2c0,2.02 -0.67,4.16 -3.37,4.16 -6.18,0 -13.04,-1.01 -50.83,-1.01 -28.9,0 -40.48,1.01 -48.02,1.01 -2.7,0 -3.49,-2.02 -3.49,-4.16l0 -6.86c0,-2.02 0.79,-2.81 2.7,-2.81l9.01 0c9.67,0 12.37,-3.49 10.35,-12.71 -2.7,-12.37 -16.42,-56.34 -20.58,-69.04l-79.73 0 -0.34 0.45zm76.24 -13.72c-3.49,-10.01 -26.88,-88.27 -28.9,-95.13 -1.35,-4.16 -2.02,-6.18 -3.37,-6.18 -2.02,0 -3.37,1.35 -4.5,4.5 -1.35,4.5 -32.27,88.95 -34.63,96.93l71.51 -0.01 -0.11 -0.11z"/>
   <path class="fil0" d="M8887.15 2710.95c0.67,0.67 0.67,1.35 0.67,3.49 -1.35,2.02 -15.18,59.04 -17.2,68.37 -8.88,-0.34 -107.84,-1.01 -142.92,-1.01 -30.92,0 -43.29,1.01 -47.34,1.01 -2.7,0 -2.7,-0.67 -2.7,-3.15l0 -7.87c0,-2.02 0,-2.81 2.02,-2.81l13.72 0c12.37,0 14.39,-4.84 14.39,-9.22 0,-6.18 1.35,-92.09 1.35,-112.67l0 -19.23c0,-22.04 -0.67,-58.36 -1.35,-64.21 -0.67,-8.88 -2.02,-12.37 -11.02,-12.37l-14.39 0c-2.02,0 -2.7,-2.02 -2.7,-3.15l0 -7.87c0,-2.02 0.67,-2.81 2.7,-2.81 3.37,0 15.74,1.01 47.34,1.01 37.11,0 51.5,-1.01 54.31,-1.01 2.81,0 3.37,1.35 3.37,3.15l0 7.87c0,1.35 -0.67,2.81 -3.37,2.81l-18.55 0c-10.35,0 -11.69,3.49 -11.69,12.71 0,4.84 -1.35,56.34 -1.35,80.4l0 29.57c0,6.18 0,80.4 1.35,95.13l19.22 0c19.23,0 43.97,0 57.69,-1.69 19.23,-2.81 41.27,-43.97 45.99,-57.01 1.35,-1.35 2.02,-2.02 4.05,-1.35l6.18 2.02 0.23 -0.11z"/>
   <path class="fil0" d="M9071.34 2687.23c-2.7,7.87 -19.57,57.01 -21.25,66.34 -0.67,2.81 -0.67,5.51 -0.67,7.2 0,4.5 5.51,8.21 12.37,8.21l14.5 0c2.7,0 3.37,0.67 3.37,1.69l0 8.55c0,2.02 -0.67,3.49 -2.7,3.49 -4.84,0 -19.23,-1.01 -43.18,-1.01 -25.41,0 -32.95,1.01 -37.78,1.01 -2.02,0 -2.02,-2.02 -2.02,-4.5l0 -6.52c0,-2.02 0.67,-2.81 2.02,-2.81l10.34 -0.02c9.67,0 15.74,-4.84 21.93,-15.41 3.49,-6.18 28.22,-68.03 38.46,-96.82l33.62 -90.07c0.79,-3.49 2.7,-9.56 0.79,-11.69 -1.12,-1.01 -2.02,-3.04 -2.02,-4.16 0,-1.35 0.67,-2.7 3.37,-3.49 11.02,-2.81 29.91,-13.04 33.96,-17.2 2.02,-2.02 3.49,-3.49 5.17,-3.49 2.02,0 3.49,4.16 4.16,6.18 6.18,21.25 32.95,98.28 39.13,120.21 8.21,26.76 30.25,90.75 35.08,99.97 6.18,11.69 15.07,15.74 21.93,15.74l11.02 0.01c2.02,0 2.7,0.67 2.7,2.36l0 7.2c0,2.02 -0.67,4.16 -3.37,4.16 -6.18,0 -13.04,-1.01 -50.83,-1.01 -28.9,0 -40.48,1.01 -48.02,1.01 -2.7,0 -3.49,-2.02 -3.49,-4.16l0 -6.86c0,-2.02 0.79,-2.81 2.7,-2.81l9 0c9.67,0 12.37,-3.49 10.35,-12.71 -2.7,-12.37 -16.42,-56.34 -20.58,-69.04l-79.72 0 -0.34 0.45zm76.24 -13.72c-3.49,-10.01 -26.88,-88.27 -28.9,-95.13 -1.35,-4.16 -2.02,-6.18 -3.37,-6.18 -2.02,0 -3.37,1.35 -4.5,4.5 -1.35,4.5 -32.27,88.95 -34.63,96.93l71.51 -0.01 -0.11 -0.11zm-64.55 -204.09c0.67,-0.34 1.69,0.34 2.7,1.69 8.88,15.07 24.06,19.57 41.27,19.57 19.9,0 37.11,-9.22 41.94,-19.57 0.67,-1.35 1.69,-2.02 2.7,-1.35l4.16 2.02c1.01,0.67 1.01,1.35 0.67,2.7 -4.16,17.2 -23.73,43.29 -50.83,43.29 -25.08,0 -45.32,-19.9 -48.02,-42.62 -0.45,-2.02 0,-3.82 1.01,-4.16l4.5 -1.69 -0.1 0.12z"/>
   <path class="fil0" d="M9583.31 2623.69c0,-8.88 -1.35,-57.69 -2.02,-62.86 -0.67,-8.21 -5.51,-9.56 -12.37,-9.56l-18.55 0.01c-1.35,0 -2.81,-0.67 -2.81,-2.36l0 -9.33c0,-1.35 1.35,-2.02 3.15,-2.02 10.01,0 27.77,1.01 51.84,1.01 17.09,0 34.3,-1.01 51.5,-1.01 45.99,0 83.1,4.5 114.7,31.26 22.71,18.55 38.46,47.45 38.46,87.26 0,39.81 -11.02,65.22 -33.62,89.96 -33.62,36.43 -87.26,36.77 -110.65,36.77 -13.04,0 -48.13,-1.01 -65.22,-1.01 -30.25,0 -43.97,1.01 -48.8,1.01 -1.35,0 -2.02,-0.67 -2.02,-3.15l0 -8.55c0,-1.35 0.67,-2.02 2.7,-2.02l19.88 -0.01c6.86,0 10.35,-2.7 11.36,-8.55 1.12,-6.86 2.36,-84.56 2.36,-110.65l0 -26.09 0.11 -0.11zm43.3 33.63c0,4.16 0.67,62.52 0.67,83.77 0,6.86 1.35,12.37 6.18,19.23 4.05,6.52 17.09,9.22 30.14,9.22 26.88,0 54.31,-12.03 71.52,-34.63 14.51,-18.55 24.74,-46.67 24.74,-78.38 0,-27.44 -11.69,-57.01 -27.55,-74.89 -18.55,-19.9 -48.8,-32.27 -76.91,-32.27 -7.53,0 -16.42,0 -21.93,3.49 -4.84,2.7 -6.18,8.21 -6.18,15.18 -0.67,14.39 -0.67,59.04 -0.67,64.55l0 24.74 -0.01 -0.01z"/>
   <path class="fil0" d="M10022.76 2682.05c0.45,18.55 1.12,52.18 1.12,58.36 0,17.88 6.18,24.74 13.72,26.76 5.51,1.35 13.72,2.7 26.76,2.7 6.18,0 22.04,-0.67 28.9,-1.35 6.18,-0.67 19.23,-4.16 28.22,-11.69 6.18,-5.51 25.41,-28.22 31.94,-36.43 1.35,-1.69 2.36,-2.02 3.71,-1.35l5.51 3.49c1.12,0.67 1.35,1.69 0.79,3.49l-16.53 51.5c-1.01,3.04 -3.37,5.17 -7.53,5.17 -1.69,0 -9.22,-0.34 -30.47,-0.67 -21.7,0 -57.01,-0.34 -114.47,-0.34 -12.71,0 -21.93,0.34 -29.12,0.34 -6.86,0.34 -11.69,0.67 -14.84,0.67 -2.02,0 -2.7,-0.67 -2.7,-2.81l0 -8.21c0,-2.02 0.79,-2.81 3.49,-2.81l11.68 -0.01c15.74,0 17.2,-2.02 17.2,-14.73l0 -115.48c0,-28.22 -0.67,-70.73 -1.35,-75.57 -1.35,-9.22 -4.84,-12.03 -15.18,-12.03l-13.04 0c-1.35,0 -2.02,-0.67 -2.02,-2.36l0 -8.88c0,-1.69 0.34,-2.36 2.02,-2.36 7.53,0 19.9,1.35 48.13,1.01l9.67 0c15.18,0 94.12,-0.67 109.19,-0.67 5.51,0 12.03,-0.34 13.72,-0.34 1.69,0 2.36,0.67 2.7,2.02 1.35,4.5 14.51,51.16 15.74,54.65 0.79,2.02 0.45,3.15 -1.01,3.82l-6.18 2.7c-1.12,0.34 -2.02,0 -3.15,-1.69 -1.35,-2.02 -29.46,-33.62 -37.78,-38.46 -7.2,-4.16 -16.53,-8.55 -26.09,-8.88l-52.18 -1.35 -0.79 99.29c10.35,0 35.08,-0.67 39.13,-1.69 7.53,-1.35 11.69,-4.16 15.86,-12.37 2.02,-4.5 5.51,-13.04 5.51,-19.23 0,-2.02 1.35,-2.7 2.7,-2.7l8.88 0.67c1.35,0 2.36,0.67 2.02,2.7 -0.67,5.51 -0.67,28.22 -0.67,37.11 0,13.72 1.35,30.25 2.02,37.78 0,1.69 -0.67,2.02 -2.7,2.36l-7.53 1.35c-1.35,0.34 -2.02,-0.34 -2.81,-2.36 -1.35,-5.51 -3.71,-13.04 -5.51,-17.2 -3.04,-6.86 -9.56,-11.69 -17.09,-12.37 -12.37,-1.35 -28.9,-2.02 -39.92,-2.02l0.34 20.58 -0.01 -0.11z"/>
   <path class="fil0" d="M10524.05 2687.23c-2.7,7.87 -19.57,57.01 -21.37,66.34 -0.67,2.81 -0.67,5.51 -0.67,7.2 0,4.5 5.51,8.21 12.37,8.21l14.4 0c2.81,0 3.49,0.67 3.49,1.69l0 8.55c0,2.02 -0.67,3.49 -2.7,3.49 -4.84,0 -19.23,-1.01 -43.29,-1.01 -25.41,0 -32.95,1.01 -37.78,1.01 -2.02,0 -2.02,-2.02 -2.02,-4.5l0 -6.52c0,-2.02 0.67,-2.81 2.02,-2.81l10.33 -0.02c9.67,0 15.86,-4.84 22.04,-15.41 3.37,-6.18 28.22,-68.03 38.46,-96.82l33.62 -90.07c0.67,-3.49 2.7,-9.56 0.67,-11.69 -1.01,-1.01 -2.02,-3.04 -2.02,-4.16 0,-1.35 0.79,-2.7 3.49,-3.49 11.02,-2.81 29.8,-13.04 33.96,-17.2 2.02,-2.02 3.37,-3.49 5.17,-3.49 2.02,0 3.37,4.16 4.05,6.18 6.18,21.25 32.95,98.28 39.13,120.21 8.32,26.76 30.25,90.75 35.08,99.97 6.18,11.69 15.18,15.74 22.04,15.74l11.02 0.01c2.02,0 2.7,0.67 2.7,2.36l0 7.2c0,2.02 -0.67,4.16 -3.49,4.16 -6.18,0 -13.04,-1.01 -50.83,-1.01 -28.9,0 -40.59,1.01 -48.13,1.01 -2.7,0 -3.37,-2.02 -3.37,-4.16l0 -6.86c0,-2.02 0.67,-2.81 2.7,-2.81l8.89 0c9.67,0 12.37,-3.49 10.35,-12.71 -2.7,-12.37 -16.42,-56.34 -20.58,-69.04l-79.61 0 -0.12 0.45zm76.24 -13.72c-3.37,-10.01 -26.76,-88.27 -28.9,-95.13 -1.35,-4.16 -2.02,-6.18 -3.37,-6.18 -2.02,0 -3.49,1.35 -4.5,4.5 -1.35,4.5 -32.27,88.95 -34.75,96.93l71.52 -0.01 0 -0.11z"/>
   <path class="fil0" d="M10948.66 2540.26c0,-2.02 0.67,-2.81 2.7,-2.81 2.7,0 18.55,1.01 40.48,1.01 28.9,0 37.78,-1.01 40.59,-1.01 2.02,0 2.7,0.67 2.7,2.36l0 8.55c0,1.69 -0.67,2.81 -2.7,2.81l-8.21 0c-8.21,0 -17.2,3.49 -25.08,15.74 -11.36,18.22 -31.94,71.74 -41.61,94.46 -6.86,15.07 -48.13,115.48 -51.5,122.68 -1.35,2.7 -4.16,4.5 -6.86,4.5 -4.05,0 -5.85,-3.82 -7.53,-7.87 -11.69,-29.24 -40.59,-107.84 -52.29,-139.77 -8.88,-24.74 -24.06,-68.71 -27.77,-78.6 -3.15,-7.53 -7.2,-11.02 -14.84,-11.02l-8.21 -0.01c-1.35,0 -2.02,-1.01 -2.02,-3.15l0 -7.87c0,-2.02 0.67,-2.81 2.02,-2.81 3.37,0 15.18,1.01 50.83,1.01 32.27,0 48.13,-1.01 50.83,-1.01 2.7,0 3.37,1.01 3.37,2.81l0 7.53c0,2.36 -0.67,3.49 -2.7,3.49l-16.42 0c-9,0 -14.51,3.49 -14.51,8.55 0,2.7 0,6.86 1.12,11.69 2.36,12.37 15.41,52.85 22.26,72.87 4.84,13.04 23.39,67.36 28.9,85.91l0.8 -0.01 0 -0.67c8.21,-19.23 30.14,-76.24 33.62,-86.58 5.51,-16.19 26.76,-68.03 26.76,-82.09 0,-4.16 -3.37,-9.56 -13.04,-9.56l-9.33 0c-1.35,0 -2.36,-1.35 -2.36,-3.15l0 -7.87 0 -0.11z"/>
   <path class="fil0" d="M11355.16 2560.84c25.75,20.92 46.67,54.99 46.67,101.65 0,25.41 -6.86,52.18 -25.41,75.57 -22.04,27.44 -51.5,48.8 -103.11,48.8 -20.58,0 -50.15,-6.18 -77.59,-22.71 -24.4,-14.73 -50.15,-52.18 -50.15,-101.65 0,-20.58 5.85,-53.3 31.6,-85.24 30.25,-37.11 67.36,-43.97 96.82,-43.97 25.41,0 52.96,4.84 81.07,27.44l0.1 0.11zm-131.91 6.86c-20.92,20.24 -30.92,55.66 -30.92,83.1 0,89.28 54.99,120.88 83.77,120.88 69.38,0 80.4,-76.91 80.4,-105.81 0,-74.89 -50.83,-117.51 -83.77,-117.51 -6.18,0 -26.09,-3.49 -49.48,19.23l0 0.11z"/>
   <path class="fil0" d="M11777.74 2725.68c1.12,1.01 1.35,2.02 0.67,3.49 -20.58,29.57 -53.53,57.69 -102.33,57.69 -43.97,0 -68.71,-13.04 -90.07,-32.27 -25.41,-22.71 -37.11,-62.52 -37.11,-92.77 0,-33.62 11.02,-66.01 34.97,-92.09 18.55,-19.9 48.13,-36.43 89.4,-36.43 31.6,0 57.01,9.67 69.38,16.53 4.72,2.81 6.18,2.81 6.86,0l2.7 -8.88c0.79,-2.02 1.35,-2.02 5.51,-2.02 4.16,0 4.84,0.67 4.84,5.51 0,6.18 6.86,61.17 8.21,71.4 0.45,2.02 0,3.15 -1.35,3.49l-6.52 2.02c-1.69,0.67 -2.7,-0.67 -3.71,-3.49 -4.16,-12.37 -12.37,-29.57 -26.76,-44.64 -15.18,-14.39 -32.95,-25.41 -59.82,-25.41 -54.99,0 -77.59,49.48 -77.59,98.95 0,21.25 6.18,61.85 31.71,89.28 22.6,24.06 42.62,26.76 59.15,26.76 37.78,0 67.69,-18.89 82.09,-39.81 1.69,-2.36 3.04,-3.49 4.16,-2.36l5.85 5.17 -0.24 -0.12z"/>
   <path class="fil0" d="M11965.41 2687.23c-2.7,7.87 -19.57,57.01 -21.37,66.34 -0.67,2.81 -0.67,5.51 -0.67,7.2 0,4.5 5.51,8.21 12.37,8.21l14.39 0c2.81,0 3.49,0.67 3.49,1.69l0 8.55c0,2.02 -0.67,3.49 -2.7,3.49 -4.84,0 -19.23,-1.01 -43.29,-1.01 -25.41,0 -32.95,1.01 -37.78,1.01 -2.02,0 -2.02,-2.02 -2.02,-4.5l0 -6.52c0,-2.02 0.67,-2.81 2.02,-2.81l10.34 -0.02c9.67,0 15.86,-4.84 22.04,-15.41 3.37,-6.18 28.22,-68.03 38.46,-96.82l33.62 -90.07c0.67,-3.49 2.7,-9.56 0.67,-11.69 -1.01,-1.01 -2.02,-3.04 -2.02,-4.16 0,-1.35 0.79,-2.7 3.49,-3.49 11.02,-2.81 29.8,-13.04 33.96,-17.2 2.02,-2.02 3.37,-3.49 5.17,-3.49 2.02,0 3.37,4.16 4.05,6.18 6.18,21.25 32.95,98.28 39.13,120.21 8.32,26.76 30.25,90.75 35.08,99.97 6.18,11.69 15.18,15.74 22.04,15.74l11.02 0.01c2.02,0 2.7,0.67 2.7,2.36l0 7.2c0,2.02 -0.67,4.16 -3.49,4.16 -6.18,0 -13.04,-1.01 -50.83,-1.01 -28.9,0 -40.59,1.01 -48.13,1.01 -2.7,0 -3.37,-2.02 -3.37,-4.16l0 -6.86c0,-2.02 0.67,-2.81 2.7,-2.81l8.89 0c9.67,0 12.37,-3.49 10.35,-12.71 -2.7,-12.37 -16.42,-56.34 -20.58,-69.04l-79.62 0 -0.11 0.45zm76.24 -13.72c-3.37,-10.01 -26.76,-88.27 -28.9,-95.13 -1.35,-4.16 -2.02,-6.18 -3.37,-6.18 -2.02,0 -3.49,1.35 -4.5,4.5 -1.35,4.5 -32.27,88.95 -34.75,96.93l71.52 -0.01 0 -0.11z"/>
   <path class="fil0" d="M12327.16 2552.96l-9.56 0c-11.02,0 -35.76,0 -50.15,4.84 -11.02,4.84 -24.06,27.44 -30.59,39.13 -1.01,1.69 -2.02,3.15 -3.71,2.36l-6.86 -2.36c-1.35,-0.67 -1.69,-1.69 -1.35,-3.49l16.42 -63.2c0.67,-4.84 2.7,-6.18 4.16,-6.18 2.02,0 3.37,1.35 5.51,3.49 6.86,6.86 13.72,8.55 23.39,8.88 18.55,0.67 32.95,2.02 66.68,2.02l18.55 0.01c37.78,0 52.18,-1.35 68.03,-2.02 6.52,-0.34 19.57,-5.17 24.74,-8.88 2.7,-2.02 4.05,-3.49 6.18,-3.49 2.13,0 2.7,1.35 3.37,5.51 0.79,6.18 7.53,48.8 10.35,65.22 0.34,2.02 -0.34,2.7 -1.35,3.15l-6.86 2.36c-1.35,0.34 -2.02,-0.67 -3.04,-2.81 -4.84,-9.67 -17.54,-31.6 -27.21,-38.46 -9.56,-5.51 -40.48,-6.18 -52.85,-6.18l-9.66 -0.01 0 183.07c0,26.09 3.49,32.95 11.69,32.95l19.91 -0.01c1.35,0 2.02,1.35 2.02,3.15l0 7.2c0,2.02 -0.67,3.49 -3.37,3.49 -3.37,0 -14.51,-1.01 -51.5,-1.01 -35.08,0 -49.48,1.01 -54.31,1.01 -2.02,0 -2.7,-0.67 -2.7,-3.15l0 -7.87c0,-2.02 1.01,-2.81 2.36,-2.81l19.56 -0.01c6.86,0 11.02,-4.16 11.36,-9.22 1.01,-8.88 1.01,-114.02 1.01,-120.88l0 -85.91 -0.22 0.11zm7.87 325.65c-1.35,0.67 -3.37,2.02 -5.51,2.02 -2.14,0 -2.7,-0.67 -2.7,-2.02 0,-1.35 0.67,-2.73 2.02,-4.16 6.18,-5.51 19.23,-18.55 19.23,-33.62 0,-3.49 -2.7,-6.86 -4.72,-8.21 -2.81,-1.35 -15.18,-4.16 -15.18,-17.88 0,-6.18 5.51,-12.37 14.39,-12.37 9.67,0 23.39,8.88 23.39,26.09 0,27.44 -25.41,46.67 -30.92,50.15z"/>
   <path class="fil0" d="M12675.52 2670.36c0,3.49 0.67,82.42 0.67,86.25 0,11.02 5.51,12.37 13.83,12.37l14.4 0c1.35,0 2.7,0.67 2.7,2.36l0 8.55c0,2.02 -1.35,2.81 -3.37,2.81 -4.16,0 -17.88,-1.01 -50.15,-1.01 -34.41,0 -49.48,1.01 -52.96,1.01 -2.02,0 -2.7,-0.67 -2.7,-2.36l0 -9.22c0,-1.35 0.67,-2.02 2.7,-2.02l13.71 -0.01c6.86,0 14.51,-0.67 15.74,-10.01 0.79,-4.84 1.35,-79.05 1.35,-97.6l0 -24.06c0,-8.21 -0.67,-70.06 -1.01,-74.55 -1.12,-8.21 -4.5,-11.69 -14.17,-11.69l-17.88 -0.01c-2.02,0 -2.7,-0.67 -2.7,-2.36l0 -8.88c0,-1.69 0.67,-2.36 2.02,-2.36 4.16,0 21.93,1.01 55.66,1.01 33.73,0 43.97,-1.01 48.69,-1.01 2.02,0 2.7,1.35 2.7,3.15l0 7.87c0,2.02 -1.35,2.81 -2.7,2.81l-13.04 -0.01c-7.53,0 -13.04,2.7 -13.04,9.22 0,3.49 -0.67,79.05 -0.67,83.1l0 26.76 0.22 -0.11z"/>
  </g>
  <g id="_1392285975008">
   <path class="fil0" d="M873.89 647.76c75.12,47.45 134.83,115.93 179.35,205.44 44.53,89.62 66.68,194.98 66.68,315.87 0,120.89 -22.94,224.11 -68.82,313.73 -45.88,89.62 -107.61,158.21 -184.86,205.44 -77.25,47.34 -161.7,71.07 -253.57,71.07 -83.1,0 -156.08,-18.22 -218.71,-54.65 -62.63,-36.43 -113.68,-88.95 -153.04,-157.43l0 185.88 -240.53 0 0 -1574.16 260.32 0 0 596.87c80.06,-119.53 201.06,-179.35 362.76,-179.35 91.76,0 175.31,23.73 250.31,71.07l0.11 0.22zm-101.54 795.79c55.32,-69.16 83.1,-160.8 83.1,-274.49 0,-113.69 -27.1,-207.24 -80.96,-276.51 -53.86,-69.16 -125.94,-103.9 -216.35,-103.9 -90.41,0 -158.89,35.42 -214.21,106.04 -55.55,70.73 -83.1,162.15 -83.1,274.37 0,112.22 27.55,208.82 83.1,276.62 55.32,67.81 126.73,101.65 214.21,101.65 87.48,0 158.89,-34.63 214.21,-103.79l0 0.01z"/>
   <path class="fil0" d="M2072.02 678.35c83.77,67.81 125.83,170.13 125.83,307.21l0 747.67 -236.26 -0.01 0 -146.52c-85.91,115.26 -206.9,172.72 -362.76,172.72 -77.36,0 -146.97,-14.62 -208.93,-43.74 -61.96,-29.12 -110.09,-69.16 -144.27,-120.21 -34.18,-51.05 -51.39,-108.62 -51.39,-172.72 0,-99.07 32.61,-178.57 97.27,-238.28 64.99,-59.71 164.4,-96.93 298.32,-111.44l349.94 -34.97 0 -65.56c0,-67.13 -19.34,-117.28 -58.02,-150.91 -38.57,-33.51 -92.88,-50.26 -162.94,-50.26 -70.06,0 -124.59,14.62 -163.84,43.63 -39.36,29.12 -64.21,74.33 -74.33,135.61l-262.44 0.01c16.19,-122.46 67.13,-215.34 153.15,-278.76 85.91,-63.31 201.73,-95.13 347.46,-95.13 145.73,0 269.43,33.85 353.2,101.65l0.01 0.01zm-206.57 820.87c48.02,-50.94 72.08,-120.21 72.08,-207.58l0 -91.87 -288.54 37.22c-64.1,7.31 -111.32,26.2 -142.13,56.9 -30.59,30.59 -45.88,69.27 -45.88,115.93 0,46.66 18.33,87.82 54.76,119.08 36.32,31.37 85.24,47.12 146.41,47.12 87.37,0 155.18,-25.53 203.42,-76.58l-0.12 -0.22z"/>
   <polygon class="fil0" points="2608.39,1733.22 2348.08,1733.22 2348.08,159.06 2608.39,159.06 "/>
   <path class="fil0" d="M3016.02 1687.34c-85.24,-48.13 -151.92,-116.61 -199.93,-205.44 -48.24,-88.83 -72.19,-192.4 -72.19,-310.47 0,-118.07 24.06,-224.11 72.19,-313.73 48.02,-89.62 114.36,-158.78 198.92,-207.58 84.56,-48.8 181.49,-73.32 290.68,-73.32 109.19,0 206.23,24.51 290.9,73.32 84.56,48.8 150.68,118.07 198.92,207.58 48.02,89.62 72.08,193.52 72.08,311.59 0,118.07 -23.61,221.63 -70.95,310.47 -47.34,88.95 -113.68,157.76 -198.92,206.68 -85.35,48.8 -181.83,73.2 -289.67,73.2 -107.84,0 -206.79,-24.06 -291.91,-72.19l-0.12 -0.11zm507.25 -245.92c54.65,-69.16 81.97,-159.9 81.97,-272.24 0,-112.34 -27.44,-205.11 -81.97,-274.37 -54.65,-69.16 -127.18,-103.79 -217.59,-103.79 -90.41,0 -164.96,34.63 -219.72,103.79 -54.65,69.16 -81.86,161.48 -81.86,276.62 0,115.14 27.55,202.52 82.87,271.11 55.55,68.59 128.3,102.78 218.71,102.78 90.41,0 162.94,-34.63 217.59,-103.79l0 -0.11z"/>
   <path class="fil0" d="M5092.37 602.89l0 1075.68c0,145.73 -45.2,264.14 -135.61,355.22 -90.41,91.08 -228.04,136.62 -413.13,136.62 -185.09,0 -322.61,-35.65 -407.85,-107.16 -85.24,-71.4 -133.59,-169.12 -145.4,-292.93l273.25 0.01c11.69,136.96 104.24,205.44 277.75,205.44 93.22,0 164.96,-24.51 215.34,-73.2 50.38,-48.8 75.45,-119.87 75.45,-213.2l0 -190.15c-75.79,120.99 -194.65,181.49 -356.35,181.49 -93.22,0 -178.12,-22.6 -254.81,-67.81 -76.46,-45.09 -136.96,-109.64 -181.27,-193.52 -44.53,-83.77 -66.68,-180.37 -66.68,-289.67 0,-109.3 22.26,-208.03 66.68,-291.91 44.3,-83.77 104.8,-148.32 181.27,-193.52 76.69,-45.09 161.59,-67.81 254.81,-67.81 83.1,0 156.53,17.2 220.85,51.39 64.1,34.3 115.82,84.11 155.29,149.67l0 -174.86 240.41 0 0 0.22zm-344.32 770.61c56,-63.31 84.11,-145.4 84.11,-245.92 0,-100.52 -28.11,-183.96 -84.11,-245.92 -56.22,-61.96 -127.18,-92.99 -213.2,-92.99 -86.02,0 -161.59,30.92 -217.59,92.99 -56,61.96 -84.11,144.61 -84.11,248.06 0,103.45 28.45,184.08 85.24,245.92 56.9,61.96 128.98,92.88 216.57,92.88 87.59,0 156.98,-31.71 213.2,-95.13l-0.11 0.11z"/>
   <path class="fil0" d="M7158.26 1403.07l255.82 0c24.74,112.22 109.97,168.33 255.82,168.33 74.33,0 130.44,-12.37 168.45,-37.22 37.89,-24.74 56.79,-59.04 56.79,-102.78 0,-37.89 -12.03,-68.82 -35.98,-92.99 -24.06,-23.95 -63.87,-40.37 -119.19,-49.14l-240.41 -43.74c-110.87,-21.93 -191.72,-59.04 -242.66,-111.44 -51.16,-52.51 -76.69,-122.46 -76.69,-209.94 0,-62.63 17.43,-120.54 52.51,-173.84 34.97,-53.19 87.15,-95.36 156.3,-126.84 69.27,-31.26 151.92,-47 248.06,-47 145.73,0 260.99,32.83 345.55,98.39 84.45,65.56 135.5,157.43 153.15,275.5l-255.83 0c-19,-123.92 -100.75,-185.88 -244.91,-185.88 -67.02,0 -118.86,13.49 -155.18,40.37 -36.43,26.99 -54.65,61.62 -54.65,103.9 0,34.97 12.03,63.42 35.98,85.24 24.06,21.81 65.33,37.11 123.58,45.88l238.28 41.49c116.61,20.47 201.17,58.36 253.68,113.8 52.4,55.44 78.6,127.52 78.6,216.35 0,100.53 -40.71,183.63 -122.34,249.3 -81.75,65.56 -201.84,98.39 -360.73,98.39 -300.24,0 -471.61,-118.86 -513.77,-356.46l-0.23 0.33z"/>
   <path class="fil0" d="M8612.21 819.36l0 539.97c0,109.41 49.59,164.06 148.54,164.06 37.89,0 68.59,-2.14 91.87,-6.52l0 214.21c-46.67,10.23 -96.93,15.29 -150.79,15.29 -116.61,0 -204.09,-32.05 -262.23,-96.14 -58.36,-64.1 -87.48,-155.85 -87.48,-275.38l0 -555.38 -181.6 0 0 -216.35 181.6 0 0 -319.24 260.09 0 0 319.24 240.42 0 0 216.35 -240.42 0 0 -0.11z"/>
   <path class="fil0" d="M9168.61 1687.23c-85.35,-48.13 -152.03,-116.61 -200.04,-205.44 -48.24,-88.83 -72.08,-192.4 -72.08,-310.47 0,-118.07 23.95,-224.11 72.08,-313.73 48.02,-89.62 114.36,-158.78 198.81,-207.69 84.45,-48.8 181.6,-73.2 290.9,-73.2 109.3,0 206.23,24.4 290.68,73.2 84.67,48.91 150.79,118.07 199.03,207.69 48.02,89.62 72.08,193.52 72.08,311.59 0,118.07 -23.73,221.52 -71.07,310.47 -47.34,88.83 -113.68,157.76 -198.81,206.57 -85.35,48.8 -181.94,73.2 -289.78,73.2 -107.84,0 -206.57,-24.06 -291.69,-72.19l-0.11 0zm507.14 -246.04c54.65,-69.16 82.09,-159.9 82.09,-272.12 0,-112.22 -27.44,-205.11 -82.09,-274.37 -54.65,-69.27 -127.29,-103.9 -217.59,-103.9 -90.3,0 -165.19,34.63 -219.84,103.9 -54.65,69.27 -81.86,161.48 -81.86,276.51 0,115.03 27.55,202.63 83.1,271.11 55.32,68.48 128.19,102.78 218.6,102.78 90.41,0 162.94,-34.52 217.59,-103.9l0 -0.01z"/>
   <path class="fil0" d="M10166.58 384.29c-30.7,-30.59 -45.88,-67.69 -45.88,-111.44 0,-43.75 15.18,-82.76 45.88,-112.56 30.59,-29.8 69.16,-44.87 115.71,-44.87 46.55,0 83.1,15.07 113.68,44.87 30.7,29.8 45.88,67.36 45.88,112.56 0,45.2 -15.18,80.85 -45.88,111.44 -30.59,30.59 -68.48,45.88 -113.68,45.88 -45.2,0 -85.24,-15.29 -115.71,-45.88zm-15.4 218.72l260.09 0 0 1130.21 -260.09 0 0 -1130.21z"/>
   <path class="fil0" d="M10819.34 1687.23c-84,-48.13 -149.44,-116.95 -196.78,-206.57 -47.45,-89.62 -71.07,-194.09 -71.07,-313.73 0,-119.64 23.61,-224.11 71.07,-313.73 47.34,-89.62 112.79,-158.1 196.78,-205.44 83.77,-47.34 179.47,-71.07 287.42,-71.07 151.69,0 271.11,38.23 358.6,114.81 87.48,76.46 140.67,178.9 159.56,307.21l-266.73 0c-26.2,-138.42 -110.65,-207.8 -253.46,-207.8 -90.41,0 -161.48,33.17 -213.2,99.52 -51.84,66.34 -77.7,157.88 -77.7,274.37 0,116.49 26.31,209.15 78.71,277.63 52.51,68.48 123.24,102.78 212.08,102.78 71.4,0 127.74,-17.43 169.35,-52.51 41.61,-35.08 69.61,-86.7 84.11,-155.18l264.7 0c-19,129.76 -72.64,232.43 -160.8,308.22 -88.16,75.9 -206.57,113.8 -355.34,113.8 -107.95,0 -203.53,-24.06 -287.42,-72.19l0.12 -0.12z"/>
   <path class="fil0" d="M12581.29 678.35c83.77,67.69 125.83,170.13 125.83,307.1l0 747.78 -236.26 -0.01 0 -146.52c-86.02,115.15 -206.9,172.72 -362.98,172.72 -77.14,0 -146.86,-14.62 -208.82,-43.74 -61.96,-29.12 -109.97,-69.27 -144.16,-120.32 -34.18,-50.94 -51.28,-108.62 -51.28,-172.72 0,-99.18 32.27,-178.57 97.27,-238.28 64.77,-59.82 164.29,-96.93 298.32,-111.55l349.83 -34.97 0 -65.67c0,-67.02 -19.34,-117.28 -57.91,-150.79 -38.57,-33.51 -92.88,-50.26 -162.94,-50.26 -70.06,0 -124.7,14.62 -163.95,43.74 -39.47,29.12 -64.21,74.33 -74.33,135.61l-262.44 0c16.08,-122.46 67.02,-215.34 153.15,-278.76 85.91,-63.42 201.84,-95.02 347.58,-95.02 145.74,0 269.2,33.85 352.97,101.65l0.12 0.01zm-206.57 820.87c48.24,-50.94 72.08,-120.21 72.08,-207.69l0 -91.87 -288.54 37.22c-64.1,7.2 -111.44,26.2 -142.13,56.79 -30.59,30.59 -45.88,69.27 -45.88,115.82 0,46.55 18.33,87.82 54.65,119.19 36.43,31.37 85.35,47 146.52,47 87.48,0 155.4,-25.53 203.42,-76.58l-0.12 0.12z"/>
   <path class="fil0" d="M7061.56 1402.73c-42.62,200.72 -183.18,333.75 -386.37,333.75 -148.09,0 -288.77,-75.23 -424.27,-223.43 -173.17,148.09 -348.81,223.43 -521.98,223.43 -298.55,0 -469.25,-145.51 -469.25,-368.94 0,-223.43 170.7,-431.69 514.45,-599.8 -65.33,-145.62 -97.94,-268.53 -97.94,-366.47 0,-117.96 42.73,-213.31 125.49,-288.54 85.35,-75.23 188.24,-113.01 306.2,-113.01 210.73,0 343.75,120.43 343.75,301.14 0,170.7 -133.03,321.26 -398.97,451.7 92.66,180.7 198.13,341.28 313.73,479.37 135.5,-173.06 203.19,-313.62 203.19,-421.68 0,-82.76 -35.08,-127.97 -107.95,-130.44l0 -55.21 521.99 0 0 55.21c-57.8,2.47 -103,15.07 -138.09,42.62 -32.61,27.55 -75.23,80.29 -127.97,160.58 -135.5,218.37 -228.38,361.41 -281.12,434.16 133.03,153.15 228.38,223.43 356.35,223.43 92.88,0 188.24,-77.81 216.01,-178.12l52.51 40.14 0.24 0.11zm-1242.21 -539.63c-183.29,100.42 -276.17,230.86 -276.17,394.02 0,180.7 123.13,321.26 296.3,321.26 102.78,0 213.31,-50.15 333.86,-150.57 -97.94,-117.96 -216.01,-306.08 -353.87,-564.71l-0.12 0zm466.88 -572.25c0,-120.43 -67.92,-193.19 -170.7,-193.19 -120.43,0 -208.25,95.36 -208.25,215.79 0,100.42 32.61,215.79 100.42,346.34 158.21,-77.81 278.65,-200.72 278.65,-368.94l-0.12 0z"/>
  </g>
 </g>
</svg>
